<?xml version="1.0" standalone="no"?>
<!DOCTYPE svg PUBLIC "-//W3C//DTD SVG 20010904//EN"
 "http://www.w3.org/TR/2001/REC-SVG-20010904/DTD/svg10.dtd">
<svg version="1.0" xmlns="http://www.w3.org/2000/svg"
 width="1024.000000pt" height="1024.000000pt" viewBox="0 0 1024.000000 1024.000000"
 preserveAspectRatio="xMidYMid meet">

<g transform="translate(0.000000,1024.000000) scale(0.100000,-0.100000)"
fill="#000000" stroke="none">
<path d="M0 5120 l0 -5120 5120 0 5120 0 0 5120 0 5120 -5120 0 -5120 0 0
-5120z m6600 3465 l0 -175 -200 0 -200 0 0 168 c0 93 3 172 7 175 3 4 93 7
200 7 l193 0 0 -175z m-1735 -212 l0 -68 68 3 67 4 0 -71 0 -71 66 0 65 0 -2
-62 -3 -63 62 -3 61 -3 3 -62 3 -62 59 -1 59 -2 -2 -66 -2 -66 70 0 71 0 0
-76 0 -76 60 4 60 3 2 -260 3 -260 66 3 66 4 2 -131 2 -131 -570 0 -571 0 0
65 0 65 -60 0 -60 0 0 60 0 60 -65 0 -65 0 0 66 0 65 -67 -2 -68 -3 -3 72 -3
72 -59 0 -60 0 0 65 0 65 -70 0 -70 0 0 70 0 70 -70 0 -70 0 0 65 0 65 -65 0
-65 0 0 65 0 65 -61 0 -61 0 4 -57 4 -58 55 -6 c29 -3 -60 -6 -199 -7 l-254
-2 4 -70 3 -70 -62 0 -62 0 -3 -67 c-2 -52 -7 -68 -18 -69 -8 -1 -36 -2 -62
-3 l-48 -1 0 -60 0 -59 -62 -3 -63 -3 -3 -65 -3 -65 -64 3 -65 4 0 64 0 64
-65 0 -65 0 0 60 0 60 -47 1 c-27 1 -56 1 -65 0 -16 -2 -18 10 -18 138 l0 141
65 0 65 0 0 65 0 65 65 0 65 0 0 65 0 65 65 0 65 0 0 65 0 65 65 0 65 0 0 68
0 67 60 -3 60 -4 0 71 0 71 898 0 897 0 0 -67z m1906 -494 l59 -51 0 -251 c-1
-182 -4 -256 -13 -268 -27 -35 -53 -39 -279 -39 l-223 0 -52 51 -53 50 0 280
0 279 251 0 251 0 59 -51z m2429 -146 l0 -78 -1082 2 -1083 3 -3 75 -3 75
1086 0 1085 0 0 -77z m-5370 -168 l0 -65 70 0 70 0 0 -65 0 -65 -65 0 -64 0
-3 62 c-2 47 -7 63 -18 65 -8 1 -45 5 -82 8 -38 4 -68 11 -68 17 0 6 7 8 15 4
12 -4 15 4 15 43 l0 49 -127 1 c-70 1 -129 4 -132 6 -2 3 84 5 192 5 l197 0 0
-65z m-287 -52 c-13 -2 -33 -2 -45 0 -13 2 -3 4 22 4 25 0 35 -2 23 -4z m84 1
c-3 -3 -12 -4 -19 -1 -8 3 -5 6 6 6 11 1 17 -2 13 -5z m4923 -99 l0 -75 -760
0 -760 0 0 75 0 75 760 0 760 0 0 -75z m-4809 -60 c-1 -41 2 -75 6 -76 54 -4
90 -2 88 6 -1 6 0 7 2 2 3 -4 8 -5 13 -2 4 3 14 -3 21 -13 13 -16 13 -16 -5
-2 -18 14 -19 13 -13 -3 4 -10 7 -108 7 -218 0 -196 0 -199 21 -199 15 0 19 5
15 15 -3 8 -1 15 4 15 6 0 10 -7 10 -15 0 -8 5 -15 11 -15 5 0 7 5 3 12 -5 7
-2 9 9 5 9 -3 18 -1 21 6 2 7 6 3 7 -8 2 -11 6 99 9 245 l5 265 63 1 62 2 0
-269 0 -269 -125 0 -125 0 0 210 0 210 -63 0 -63 0 1 65 c0 36 3 65 6 65 3 0
4 12 1 28 -2 15 -1 24 3 20 4 -4 7 -41 6 -83z m89 75 c0 -5 -5 -10 -11 -10 -5
0 -7 5 -4 10 3 6 8 10 11 10 2 0 4 -4 4 -10z m127 -110 c1 -25 -2 -40 -10 -40
-7 0 -6 -4 3 -11 13 -9 13 -10 0 -6 -8 2 -15 8 -16 13 -2 26 -17 44 -28 35 -6
-5 -18 -6 -25 -2 -9 6 -5 10 13 13 18 4 29 -1 39 -16 13 -19 14 -19 9 13 -2
18 -7 29 -11 24 -3 -5 -14 -9 -23 -10 -43 -2 -48 -4 -48 -19 0 -8 -4 -12 -10
-9 -12 7 -14 36 -2 34 19 -3 33 2 27 11 -4 6 11 10 37 10 l44 0 1 -40z m-38
-56 c3 -16 1 -17 -13 -5 -19 16 -21 34 -3 29 6 -3 14 -13 16 -24z m4 -36 c-14
-24 -11 -38 8 -38 13 0 18 4 13 12 -4 7 -3 8 4 4 16 -10 15 -56 0 -56 -10 0
-10 -2 -1 -8 14 -9 13 -52 -2 -52 -5 0 -3 -5 5 -10 13 -8 13 -10 -1 -10 -10 0
-19 10 -21 25 -3 13 -1 22 3 19 17 -10 9 16 -10 35 -11 11 -17 22 -14 25 3 3
-2 8 -11 12 -15 6 -15 9 5 30 24 26 35 31 22 12z m334 -95 c-2 -16 -4 -5 -4
22 0 28 2 40 4 28 2 -13 2 -35 0 -50z m-343 -67 c-3 -9 -10 -13 -15 -10 -5 3
-3 11 4 19 15 16 19 13 11 -9z m46 -16 c0 -5 -7 -7 -15 -4 -8 4 -15 8 -15 10
0 2 7 4 15 4 8 0 15 -4 15 -10z m0 -51 c0 -5 -4 -9 -8 -9 -5 0 -9 7 -9 15 0 8
4 12 9 9 4 -3 8 -9 8 -15z m-47 -24 c-7 -21 -13 -19 -13 6 0 11 4 18 10 14 5
-3 7 -12 3 -20z m2863 -72 l54 -47 0 -247 0 -248 -26 -20 c-25 -20 -39 -21
-240 -21 -117 0 -219 3 -228 6 -12 5 -16 20 -16 64 0 56 -1 58 -31 64 -17 3
-42 6 -55 6 l-24 0 0 245 0 245 256 0 255 0 55 -47z m-2519 5 c-3 -7 -5 -2 -5
12 0 14 2 19 5 13 2 -7 2 -19 0 -25z m373 -123 l0 -55 -57 2 -58 2 53 3 52 4
0 50 c0 27 2 49 5 49 3 0 5 -25 5 -55z m4570 -25 l0 -80 -1085 0 -1085 0 0 80
0 80 1085 0 1085 0 0 -80z m-4693 -72 c-3 -8 -6 -5 -6 6 -1 11 2 17 5 13 3 -3
4 -12 1 -19z m1391 -38 l-3 -60 73 0 72 0 0 -65 0 -65 70 0 70 0 0 -70 0 -70
65 0 65 0 0 -65 0 -65 55 0 55 0 0 -65 0 -65 65 0 65 0 0 -65 0 -65 70 0 70 0
0 -135 0 -135 -527 0 -528 0 3 -70 4 -70 -66 0 -66 0 0 -67 0 -68 -315 0 -315
0 0 62 0 63 -185 0 -185 0 0 65 0 65 -130 0 -130 0 0 65 0 65 -65 0 -65 0 0
140 0 140 65 0 65 0 0 70 0 70 65 0 65 0 0 65 0 65 65 0 64 0 3 68 3 67 65 1
65 1 3 67 3 66 54 0 55 0 0 60 0 60 571 0 571 0 -4 -60z m-1455 -47 c-7 -2
-19 -2 -25 0 -7 3 -2 5 12 5 14 0 19 -2 13 -5z m60 0 c-7 -2 -21 -2 -30 0 -10
3 -4 5 12 5 17 0 24 -2 18 -5z m-323 -20 c-30 -3 -60 -9 -67 -15 -10 -8 -12
-7 -7 6 5 13 19 16 68 14 l61 -2 -55 -3z m-2955 -85 l0 -63 58 1 57 1 0 -68 0
-69 66 0 66 0 -4 -65 -3 -65 68 0 67 0 0 -65 0 -65 66 0 65 0 -2 -67 -3 -68
62 -3 62 -3 0 -69 0 -70 65 0 65 0 0 -70 0 -70 60 0 60 0 0 -60 0 -60 55 0 55
0 0 -255 0 -255 -60 0 -60 0 0 -70 0 -70 -55 0 -55 0 0 -65 0 -65 -55 0 -55 0
0 -60 0 -60 -55 0 -55 0 0 -75 0 -76 -57 3 -58 3 -2 115 c-1 63 -2 123 -2 133
-1 14 -11 17 -61 17 l-60 0 0 170 0 170 -55 0 -55 0 0 135 0 135 -64 0 c-59 0
-63 2 -63 23 -1 12 -1 75 -2 140 l-1 117 -55 0 -55 0 0 145 0 145 -60 0 -60 0
0 130 0 130 -59 0 -58 0 1 128 c1 70 3 160 4 200 l2 72 143 0 142 0 0 -62z
m2882 -20 c-2 -13 -4 -3 -4 22 0 25 2 35 4 23 2 -13 2 -33 0 -45z m4443 -43
l0 -75 -760 0 -760 0 0 75 0 75 760 0 760 0 0 -75z m-6103 33 c-3 -8 -6 -5 -6
6 -1 11 2 17 5 13 3 -3 4 -12 1 -19z m1380 -30 c-3 -8 -6 -5 -6 6 -1 11 2 17
5 13 3 -3 4 -12 1 -19z m186 15 c-21 -4 -23 -10 -23 -63 0 -32 -3 -61 -7 -63
-5 -3 -7 26 -5 64 4 68 4 69 30 68 24 -2 24 -2 5 -6z m224 -85 c-2 -13 -4 -5
-4 17 -1 22 1 32 4 23 2 -10 2 -28 0 -40z m-890 10 c-3 -8 -6 -5 -6 6 -1 11 2
17 5 13 3 -3 4 -12 1 -19z m480 -10 c-3 -7 -5 -2 -5 12 0 14 2 19 5 13 2 -7 2
-19 0 -25z m380 -35 c-20 -2 -52 -2 -70 0 -17 2 0 4 38 4 39 0 53 -2 32 -4z
m-360 -100 c-2 -21 -4 -6 -4 32 0 39 2 55 4 38 2 -18 2 -50 0 -70z m66 90 c-7
-2 -19 -2 -25 0 -7 3 -2 5 12 5 14 0 19 -2 13 -5z m44 1 c-3 -3 -12 -4 -19 -1
-8 3 -5 6 6 6 11 1 17 -2 13 -5z m71 -131 c-10 -2 -26 -2 -35 0 -10 3 -2 5 17
5 19 0 27 -2 18 -5z m4412 -283 c0 -60 1 -113 3 -117 1 -5 -28 -9 -65 -11
l-68 -3 2 98 c1 54 3 81 5 61 4 -35 7 -38 36 -38 68 0 77 8 77 61 l0 48 -37 4
-38 4 43 1 42 2 0 -110z m605 0 c3 -60 4 -113 1 -118 -3 -5 -35 -10 -71 -10
l-65 0 0 114 c0 112 0 114 23 113 16 -1 18 -2 5 -6 -14 -3 -18 -15 -18 -54 l0
-49 55 0 55 0 0 56 0 56 -34 -4 c-19 -2 -32 0 -30 4 3 4 20 8 38 8 l33 0 8
-110z m-1185 -165 l0 -75 -415 0 -415 0 0 75 0 75 415 0 415 0 0 -75z m1420
-511 c0 -389 -4 -418 -60 -474 -60 -60 -74 -61 -565 -58 l-440 3 -38 24 c-21
13 -50 42 -65 64 l-27 41 -3 373 -3 373 601 0 600 0 0 -346z m-1530 119 l0
-78 -357 1 -358 2 -3 76 -3 76 361 0 360 0 0 -77z m-2402 -502 l262 -1 0 -65
0 -65 60 0 59 0 3 -67 3 -68 63 0 62 0 0 -62 0 -63 55 0 55 0 0 -143 0 -142
-105 -500 c-57 -275 -121 -580 -142 -677 l-37 -178 -870 -1 c-479 0 -897 -2
-928 -5 l-58 -6 0 66 0 66 -29 0 c-61 0 -62 -15 10 348 168 855 173 889 152
1105 l-6 67 -58 0 -59 0 0 49 c0 76 -4 81 -66 81 l-53 0 -3 63 c-2 34 -2 95 0
135 l4 73 681 -5 c375 -3 800 -5 945 -5z m-4401 -323 c-3 -8 -6 -5 -6 6 -1 11
2 17 5 13 3 -3 4 -12 1 -19z m0 -50 c-3 -7 -5 -2 -5 12 0 14 2 19 5 13 2 -7 2
-19 0 -25z m20 -24 c-3 -3 -12 -4 -19 -1 -8 3 -5 6 6 6 11 1 17 -2 13 -5z m86
-1 c-13 -2 -35 -2 -50 0 -16 2 -5 4 22 4 28 0 40 -2 28 -4z m704 -175 c-2 -13
-4 -3 -4 22 0 25 2 35 4 23 2 -13 2 -33 0 -45z m210 20 c-3 -8 -6 -5 -6 6 -1
11 2 17 5 13 3 -3 4 -12 1 -19z m-210 -115 c-3 -10 -5 -4 -5 12 0 17 2 24 5
18 2 -7 2 -21 0 -30z m-532 5 c6 -4 2 -8 -7 -8 -10 0 -18 7 -18 17 0 9 3 12 8
7 4 -5 12 -12 17 -16z m117 -90 c2 -27 0 -48 -4 -48 -5 0 -7 28 -7 63 1 67 6
60 11 -15z m415 -75 c-2 -27 -3 -5 -3 47 0 52 1 74 3 48 2 -27 2 -69 0 -95z
m-280 -80 c-2 -21 -4 -6 -4 32 0 39 2 55 4 38 2 -18 2 -50 0 -70z m1303 -105
l0 -68 65 0 65 0 0 -70 0 -70 65 0 65 0 0 -70 0 -70 68 0 67 0 -3 -67 -4 -66
99 5 c54 2 83 3 66 1 l-33 -4 0 -70 0 -69 70 0 70 0 0 -70 0 -70 66 0 66 0 -4
-65 -3 -65 63 0 62 0 0 -70 0 -70 65 0 65 0 0 -70 0 -70 60 0 60 0 0 -65 0
-65 45 0 45 0 0 -265 0 -265 -64 0 -63 0 -7 -37 c-3 -21 -6 -82 -6 -135 l0
-98 -65 0 -65 0 0 -70 0 -70 -60 0 -60 0 0 -70 0 -70 -297 0 -298 0 3 200 3
199 62 3 62 3 0 133 0 132 50 1 c28 1 53 1 58 0 11 -2 13 237 2 347 l-7 62
-59 0 -59 0 0 65 0 65 -65 0 -65 0 -2 48 c-1 26 -2 57 -2 70 0 21 -4 22 -68
22 l-68 0 0 65 0 65 -60 0 -60 0 0 70 0 69 -67 3 -68 3 -5 65 -5 65 -62 3 -63
3 0 69 0 70 -60 0 -60 0 0 65 0 65 -75 0 -75 0 0 75 0 75 -65 0 -65 0 0 65 0
65 -50 0 -50 0 0 71 0 72 390 -4 390 -4 0 -67z m3650 7 l0 -65 60 0 60 0 0
-70 0 -70 71 0 71 0 -4 -70 -3 -70 68 0 67 0 0 -70 0 -70 65 0 65 0 0 -70 0
-70 65 0 65 0 0 -71 0 -71 60 4 60 3 0 -62 0 -63 65 0 65 0 0 -205 0 -205 -65
0 -65 0 0 -70 0 -70 -60 0 -60 0 0 -135 0 -135 -70 0 -70 0 0 -65 0 -65 -285
0 -285 0 0 135 0 135 65 0 65 0 0 140 0 140 70 0 70 0 0 88 c0 49 -3 137 -7
195 l-6 107 -59 0 -58 0 0 65 0 65 -42 2 c-24 1 -56 2 -73 3 -30 1 -30 1 -33
68 l-3 67 -65 0 c-56 0 -65 2 -63 18 4 41 -2 122 -8 121 -5 -1 -36 -1 -71 0
l-63 1 7 69 c5 55 4 69 -7 69 -8 -1 -35 0 -61 0 -39 2 -48 5 -48 20 0 10 18
101 40 202 22 101 40 186 40 187 0 2 83 3 185 3 l185 0 0 -65z m-4480 -82
c-108 -7 -230 -7 -230 0 0 4 62 6 138 5 75 -1 117 -3 92 -5z m-223 -85 c-2
-13 -4 -3 -4 22 0 25 2 35 4 23 2 -13 2 -33 0 -45z m-109 -55 c-26 -4 -27 -8
-31 -66 l-3 -62 -2 68 -2 67 33 -1 c29 -2 30 -2 5 -6z m-161 -155 c-3 -8 -6
-5 -6 6 -1 11 2 17 5 13 3 -3 4 -12 1 -19z m46 15 c-7 -2 -19 -2 -25 0 -7 3
-2 5 12 5 14 0 19 -2 13 -5z m60 0 c-7 -2 -19 -2 -25 0 -7 3 -2 5 12 5 14 0
19 -2 13 -5z m-106 -95 c-2 -13 -4 -3 -4 22 0 25 2 35 4 23 2 -13 2 -33 0 -45z
m-120 -145 c-2 -21 -4 -4 -4 37 0 41 2 58 4 38 2 -21 2 -55 0 -75z m26 -290
c-7 -2 -19 -2 -25 0 -7 3 -2 5 12 5 14 0 19 -2 13 -5z m124 -139 c-3 -3 -12
-4 -19 -1 -8 3 -5 6 6 6 11 1 17 -2 13 -5z m100 -106 c-3 -8 -6 -5 -6 6 -1 11
2 17 5 13 3 -3 4 -12 1 -19z m240 -164 c-3 -3 -12 -4 -19 -1 -8 3 -5 6 6 6 11
1 17 -2 13 -5z m4110 -400 c-3 -3 -12 -4 -19 -1 -8 3 -5 6 6 6 11 1 17 -2 13
-5z m-3150 -636 c-3 -7 -5 -2 -5 12 0 14 2 19 5 13 2 -7 2 -19 0 -25z"/>
<path d="M3209 8268 c0 -18 -2 -48 -4 -65 l-3 -33 59 0 59 0 0 65 0 65 -55 0
-55 0 -1 -32z"/>
<path d="M3335 8163 c-6 -2 -9 -28 -7 -61 l4 -58 46 1 c70 1 72 0 72 -66 l0
-59 65 0 65 0 0 60 0 60 -65 0 -65 0 0 66 0 65 -52 -2 c-29 -1 -57 -4 -63 -6z"/>
<path d="M6570 7715 c-52 -52 -98 -95 -103 -95 -4 0 -29 19 -55 42 l-47 42 50
-52 49 -52 103 102 c57 57 103 104 103 105 0 7 -12 -4 -100 -92z"/>
<path d="M6712 7775 c21 -22 39 -37 41 -34 2 2 -15 19 -37 38 l-41 35 37 -39z"/>
<path d="M6660 7623 l-95 -98 98 95 c90 88 102 100 94 100 -1 0 -45 -44 -97
-97z"/>
<path d="M6309 7643 l-34 -38 38 34 c34 33 42 41 34 41 -2 0 -19 -17 -38 -37z"/>
<path d="M6360 7515 c47 -47 87 -85 90 -85 2 0 -33 38 -80 85 -47 47 -87 85
-90 85 -2 0 33 -38 80 -85z"/>
<path d="M6510 7475 c-24 -25 -42 -45 -39 -45 3 0 25 20 49 45 24 25 42 45 39
45 -3 0 -25 -20 -49 -45z"/>
<path d="M3925 7170 c-3 -5 1 -10 10 -10 9 0 13 5 10 10 -3 6 -8 10 -10 10 -2
0 -7 -4 -10 -10z"/>
<path d="M6550 6723 l-105 -108 108 105 c59 57 107 106 107 107 0 8 -13 -5
-110 -104z"/>
<path d="M6715 6790 c21 -22 41 -40 44 -40 3 0 -13 18 -34 40 -21 22 -41 40
-44 40 -3 0 13 -18 34 -40z"/>
<path d="M6675 6668 l-70 -73 73 70 c67 64 77 75 69 75 -1 0 -34 -33 -72 -72z"/>
<path d="M6320 6663 l-45 -48 47 44 48 45 25 -24 c14 -13 25 -21 25 -17 0 8
-42 47 -50 47 -3 0 -26 -21 -50 -47z"/>
<path d="M6365 6530 c44 -44 82 -80 85 -80 2 0 -31 36 -75 80 -44 44 -82 80
-85 80 -2 0 31 -36 75 -80z"/>
<path d="M6496 6483 c-6 -14 -5 -15 5 -6 7 7 10 15 7 18 -3 3 -9 -2 -12 -12z"/>
<path d="M8300 5283 l0 -88 90 -1 90 0 0 88 0 88 -90 0 -90 0 0 -87z"/>
<path d="M8600 5283 l0 -88 90 -3 90 -2 0 90 0 90 -90 0 -90 0 0 -87z"/>
<path d="M8900 5281 l0 -88 88 1 87 1 3 88 3 87 -91 0 -90 0 0 -89z"/>
<path d="M8300 4990 l0 -90 90 0 90 0 0 90 0 90 -90 0 -90 0 0 -90z"/>
<path d="M8598 5073 c-3 -7 -2 -139 1 -165 1 -5 42 -8 91 -8 l90 0 0 90 0 90
-89 0 c-50 0 -91 -3 -93 -7z"/>
<path d="M8899 5053 c-2 -41 1 -146 4 -149 1 -1 40 -4 87 -5 l85 -2 3 91 3 92
-91 0 -90 0 -1 -27z"/>
<path d="M3498 2383 c7 -3 16 -2 19 1 4 3 -2 6 -13 5 -11 0 -14 -3 -6 -6z"/>
<path d="M6658 2803 c6 -2 18 -2 25 0 6 3 1 5 -13 5 -14 0 -19 -2 -12 -5z"/>
<path d="M6713 2803 c9 -2 23 -2 30 0 6 3 -1 5 -18 5 -16 0 -22 -2 -12 -5z"/>
<path d="M7233 2803 c9 -2 25 -2 35 0 9 3 1 5 -18 5 -19 0 -27 -2 -17 -5z"/>
</g>
</svg>
