<?xml version="1.0" standalone="no"?>
<!DOCTYPE svg PUBLIC "-//W3C//DTD SVG 20010904//EN"
 "http://www.w3.org/TR/2001/REC-SVG-20010904/DTD/svg10.dtd">
<svg version="1.0" xmlns="http://www.w3.org/2000/svg"
 width="1024.000000pt" height="1024.000000pt" viewBox="0 0 1024.000000 1024.000000"
 preserveAspectRatio="xMidYMid meet">

<g transform="translate(0.000000,1024.000000) scale(0.100000,-0.100000)"
fill="#000000" stroke="none">
<path d="M4068 8442 c-139 -126 -550 -496 -913 -822 -363 -326 -668 -600 -678
-610 -10 -9 -33 -57 -51 -106 -18 -49 -117 -296 -220 -549 -200 -492 -198
-484 -144 -519 13 -8 84 -24 158 -35 482 -75 1004 -155 1179 -181 112 -16 206
-32 209 -35 8 -8 -45 -72 -536 -648 -257 -301 -477 -562 -489 -579 -31 -41
-29 -65 8 -123 l31 -50 -38 -33 c-42 -37 -672 -549 -899 -731 -81 -65 -148
-126 -158 -146 -17 -31 -18 -52 -11 -260 6 -186 10 -230 23 -246 23 -28 832
-329 884 -329 12 0 138 42 282 94 531 193 765 276 778 276 21 0 1030 -296
1385 -406 l112 -35 0 -243 c0 -230 1 -245 21 -269 23 -30 34 -34 394 -131 694
-188 894 -239 941 -239 47 -1 64 7 250 115 356 207 981 561 1344 761 195 108
364 205 375 216 27 26 216 446 222 493 5 35 0 42 -105 155 -61 65 -206 222
-324 348 -117 127 -227 237 -244 246 l-32 15 182 291 c99 160 200 324 223 364
l42 74 35 310 c98 863 215 1813 257 2095 12 80 23 164 23 187 1 64 -26 85
-167 127 -133 41 -188 45 -215 18 -30 -30 -223 -305 -497 -707 -142 -209 -331
-486 -420 -615 -89 -129 -235 -344 -324 -478 -109 -164 -166 -240 -174 -235
-7 4 -70 46 -142 93 -209 140 -569 376 -720 473 -77 49 -144 94 -149 98 -13
11 8 27 288 217 132 89 244 169 249 178 5 9 26 82 47 162 21 81 100 361 176
622 75 261 139 492 142 513 4 38 3 40 -185 230 -352 357 -679 692 -738 755
l-58 62 -688 0 -689 0 -252 -228z m1441 81 c-70 -90 -780 -919 -1168 -1363
-151 -173 -276 -317 -278 -319 -2 -3 -144 10 -316 27 -730 75 -1092 113 -1096
118 -2 2 -2 6 0 7 19 16 919 823 1044 937 88 80 276 249 418 375 l257 230 572
5 c315 3 575 4 577 3 2 -2 -2 -11 -10 -20z m598 -464 l432 -435 -84 -310 c-86
-319 -228 -835 -246 -890 -8 -27 -76 -76 -480 -345 -258 -173 -489 -327 -513
-342 l-43 -28 -692 -9 c-381 -4 -707 -7 -725 -4 -116 15 -522 77 -525 80 -3 3
326 353 649 690 80 83 253 268 384 412 152 166 244 258 250 253 18 -14 489
-344 518 -363 15 -10 32 -18 37 -18 25 0 445 310 455 335 3 9 6 135 6 280 0
224 -2 266 -15 279 -9 8 -94 70 -190 136 l-175 122 58 66 c31 37 147 172 256
300 109 128 202 231 205 230 4 -2 201 -199 438 -439z m-995 -469 c137 -38 175
-220 64 -305 -71 -54 -168 -43 -230 25 -37 41 -54 103 -41 158 9 43 63 101
110 117 49 17 51 17 97 5z m3326 -445 c2 -2 -70 -190 -161 -417 -91 -227 -211
-537 -265 -688 -55 -151 -162 -437 -237 -635 -76 -198 -160 -418 -187 -490
-27 -71 -51 -131 -53 -133 -2 -2 -122 75 -267 170 -144 96 -284 187 -310 203
-27 17 -48 34 -48 39 0 17 496 751 1020 1508 96 139 212 308 257 374 l84 122
81 -24 c44 -13 83 -26 86 -29z m-5159 -360 c354 -36 645 -65 648 -65 2 0 -134
-150 -303 -332 -169 -183 -333 -360 -363 -393 -30 -33 -82 -89 -115 -124 l-60
-63 -205 26 c-305 39 -685 97 -694 106 -7 6 160 437 308 795 56 135 50 128 98
121 23 -3 332 -35 686 -71z m5070 -460 c-27 -214 -83 -678 -124 -1030 -41
-352 -79 -656 -84 -676 -4 -20 -55 -110 -111 -200 -57 -90 -155 -249 -218
-354 -63 -104 -116 -192 -117 -194 -4 -3 -326 77 -332 83 -3 2 58 168 135 368
76 199 167 440 201 533 35 94 114 303 176 465 62 162 130 340 150 395 92 247
129 346 217 580 52 138 107 289 123 337 16 48 30 86 31 85 1 -1 -20 -177 -47
-392z m-2034 -892 c766 -506 1164 -776 1165 -788 0 -5 -100 -39 -223 -74 -122
-36 -379 -116 -572 -178 -192 -63 -514 -164 -715 -225 -810 -246 -952 -288
-965 -288 -7 0 -16 -6 -19 -12 -24 -50 16 64 94 267 119 311 451 1229 542
1497 l70 208 37 -22 c20 -12 284 -185 586 -385z m-879 46 c-58 -167 -195 -556
-306 -864 -111 -308 -214 -593 -228 -634 -15 -40 -32 -75 -38 -78 -7 -2 -246
43 -531 101 -285 58 -762 153 -1060 212 -299 59 -543 111 -543 116 0 5 103
129 228 276 228 266 482 565 702 825 l115 136 360 2 c198 1 527 4 730 8 l370
6 150 101 c83 56 151 101 152 100 2 -1 -44 -139 -101 -307z m1906 -1201 c-58
-158 -108 -286 -110 -284 -2 2 30 96 72 208 104 282 138 370 141 366 2 -2 -44
-133 -103 -290z m-1049 -45 c-7 -2 -19 -2 -25 0 -7 3 -2 5 12 5 14 0 19 -2 13
-5z m-64 -18 c-15 -8 -44 -38 -65 -67 -110 -150 -1034 -1346 -1080 -1397 -2
-2 -4 11 -3 30 0 25 2 29 8 15 6 -16 12 -13 42 27 19 26 135 176 258 334 124
159 301 387 395 508 93 121 185 240 204 265 19 25 72 95 119 157 80 107 115
143 138 143 5 -1 -2 -7 -16 -15z m146 5 c14 -7 8 -8 -20 -3 -22 3 -42 7 -44 9
-9 8 45 2 64 -6z m137 -36 c54 -15 97 -29 94 -31 -4 -4 -197 46 -205 53 -9 8
15 3 111 -22z m-3507 -35 c280 -62 960 -201 1460 -299 204 -40 373 -76 377
-79 9 -8 57 -457 131 -1229 4 -36 2 -42 -12 -38 -9 3 -99 30 -201 60 -383 113
-703 207 -945 276 -137 40 -257 80 -267 89 -9 9 -72 108 -140 221 -69 113
-225 367 -348 565 -305 492 -301 485 -292 485 4 0 111 -23 237 -51z m3642 -5
c-3 -3 -12 -4 -19 -1 -8 3 -5 6 6 6 11 1 17 -2 13 -5z m280 -69 c139 -36 256
-65 260 -65 3 0 4 -2 1 -5 -5 -5 -518 123 -527 131 -9 9 23 1 266 -61z m46
-151 c370 -91 675 -169 679 -173 8 -7 2 -14 -502 -612 -542 -642 -774 -920
-778 -930 -2 -5 -9 -9 -16 -9 -6 0 -131 38 -276 84 -146 46 -362 114 -480 151
-118 36 -272 84 -342 106 l-128 40 122 162 c419 556 1030 1347 1041 1347 4 0
310 -75 680 -166z m-4166 -38 c62 -101 115 -190 118 -198 5 -11 -414 -539
-490 -617 l-23 -24 -244 66 c-133 36 -298 81 -365 99 -68 18 -123 35 -123 38
1 3 182 150 403 328 221 177 447 360 502 406 55 47 102 85 105 85 3 0 56 -83
117 -183z m2170 -103 c-2 -16 -4 -5 -4 22 0 28 2 40 4 28 2 -13 2 -35 0 -50z
m10 -95 c-2 -13 -4 -3 -4 22 0 25 2 35 4 23 2 -13 2 -33 0 -45z m2948 -110
c55 -62 174 -192 264 -288 91 -96 176 -187 189 -201 l24 -27 -98 -201 -98
-202 -60 -34 c-539 -297 -949 -527 -1298 -728 l-428 -246 0 219 0 219 188 223
c526 624 938 1120 1086 1304 79 100 82 102 106 89 14 -7 71 -64 125 -127z
m-2938 20 c-2 -13 -4 -3 -4 22 0 25 2 35 4 23 2 -13 2 -33 0 -45z m-1788 -361
c106 -175 191 -320 189 -322 -1 -1 -145 -53 -318 -114 -173 -62 -375 -134
-447 -160 l-133 -49 0 178 0 177 161 199 c282 350 344 423 350 416 3 -4 92
-150 198 -325z m1834 -44 c3 -48 -5 2 -18 112 -13 110 -24 216 -23 235 0 48
35 -238 41 -347z m-2905 -202 c123 -32 226 -61 228 -64 3 -2 3 -81 2 -175 l-3
-170 -352 128 c-194 71 -356 131 -360 133 -5 3 -7 68 -5 145 l3 139 132 -38
c73 -21 233 -65 355 -98z m2919 47 c-2 -13 -4 -3 -4 22 0 25 2 35 4 23 2 -13
2 -33 0 -45z m10 -100 c-2 -13 -4 -3 -4 22 0 25 2 35 4 23 2 -13 2 -33 0 -45z
m10 -95 c-2 -16 -4 -5 -4 22 0 28 2 40 4 28 2 -13 2 -35 0 -50z m443 -514
c212 -67 475 -149 585 -183 l200 -63 3 -236 c1 -132 -2 -237 -6 -237 -5 0 -96
24 -203 54 -107 30 -273 75 -369 101 -96 25 -277 74 -402 108 l-228 62 0 264
c0 246 1 263 18 256 9 -3 190 -60 402 -126z"/>
</g>
</svg>
